<?xml version="1.0" encoding="UTF-8" standalone="no"?>
<svg
   id="Layer_1"
   data-name="Layer 1"
   viewBox="0 0 81.78 73.9"
   version="1.1"
   sodipodi:docname="logo-square.svg"
   inkscape:version="1.3 (0e150ed, 2023-07-21)"
   inkscape:export-filename="logo-square.png"
   inkscape:export-xdpi="96"
   inkscape:export-ydpi="96"
   xmlns:inkscape="http://www.inkscape.org/namespaces/inkscape"
   xmlns:sodipodi="http://sodipodi.sourceforge.net/DTD/sodipodi-0.dtd"
   xmlns="http://www.w3.org/2000/svg"
   xmlns:svg="http://www.w3.org/2000/svg">
  <sodipodi:namedview
     id="namedview2"
     pagecolor="#ffffff"
     bordercolor="#000000"
     borderopacity="0.25"
     inkscape:showpageshadow="2"
     inkscape:pageopacity="0.0"
     inkscape:pagecheckerboard="0"
     inkscape:deskcolor="#d1d1d1"
     showguides="true"
     inkscape:zoom="15.785867"
     inkscape:cx="40.289203"
     inkscape:cy="36.931769"
     inkscape:window-width="2560"
     inkscape:window-height="1331"
     inkscape:window-x="0"
     inkscape:window-y="25"
     inkscape:window-maximized="0"
     inkscape:current-layer="Layer_1">
    <sodipodi:guide
       position="40.795986,46.913836"
       orientation="1,0"
       id="guide2"
       inkscape:locked="false" />
  </sodipodi:namedview>
  <defs
     id="defs1">
    <style
       id="style1">.cls-1{fill:#616161;}.cls-2{fill:#f37726;}</style>
  </defs>
  <title
     id="title1">Artboard 4</title>
  <path
     class="cls-2"
     d="M37.88,73.9q0-8.82-10.13-8.82H19.33q-7.83,0-12.53-3.79T0,50.25l4.8-1.63q2.7,8.46,13.78,8.75h9.17q9.63,0,13.13,7.53Q44.3,57.37,54,57.37h8.45q11.76,0,14.55-8.72l4.78,1.6Q79.71,57.61,75,61.33T62.63,65.08H53.88q-10,0-10,8.82"
     id="path2" />
  <path
     d="m 40.732638,30.257337 v -7.592191 h 20.072498 v 17.950768 q -2.925929,2.766386 -8.494631,4.887283 -5.53724,2.090156 -11.231791,2.090156 -7.236167,0 -12.616101,-2.950811 -5.379932,-2.981548 -8.085628,-8.483581 -2.705698,-5.532773 -2.705698,-12.018411 0,-7.038913 3.020312,-12.51021 3.020314,-5.4712953 8.84071,-8.3913689 4.436085,-2.2438461 11.04302,-2.2438461 8.589017,0 13.402642,3.534826 4.845084,3.5040889 6.229395,9.713086 l -9.24971,1.69057 q -0.975308,-3.319664 -3.681008,-5.225396 -2.674234,-1.9364688 -6.701319,-1.9364688 -6.10355,0 -9.721634,3.7807258 -3.586621,3.780727 -3.586621,11.219232 0,8.022518 3.649543,12.049145 3.649548,3.995892 9.564328,3.995892 2.925928,0 5.851857,-1.106555 2.957388,-1.137291 5.065317,-2.735648 v -5.717197 z"
     id="text2"
     style="font-weight:bold;font-size:64px;font-family:Arial;-inkscape-font-specification:'Arial Bold';text-align:center;letter-spacing:0px;text-anchor:middle;fill:#616161;stroke:#f37726;stroke-width:1.99025;stroke-linejoin:round;stroke-opacity:0"
     aria-label="G" />
</svg>
