<?xml version="1.0" encoding="UTF-8" standalone="no"?>
<svg
   id="Layer_1"
   data-name="Layer 1"
   viewBox="0 0 250 110"
   version="1.1"
   sodipodi:docname="logo.svg"
   width="250"
   height="110"
   inkscape:version="1.3 (0e150ed, 2023-07-21)"
   inkscape:export-filename="logo.png"
   inkscape:export-xdpi="96"
   inkscape:export-ydpi="96"
   xmlns:inkscape="http://www.inkscape.org/namespaces/inkscape"
   xmlns:sodipodi="http://sodipodi.sourceforge.net/DTD/sodipodi-0.dtd"
   xmlns="http://www.w3.org/2000/svg"
   xmlns:svg="http://www.w3.org/2000/svg"
   xmlns:rdf="http://www.w3.org/1999/02/22-rdf-syntax-ns#"
   xmlns:cc="http://creativecommons.org/ns#"
   xmlns:dc="http://purl.org/dc/elements/1.1/">
  <sodipodi:namedview
     id="namedview4"
     pagecolor="#ffffff"
     bordercolor="#000000"
     borderopacity="0.25"
     inkscape:showpageshadow="2"
     inkscape:pageopacity="0.0"
     inkscape:pagecheckerboard="0"
     inkscape:deskcolor="#d1d1d1"
     showguides="true"
     inkscape:zoom="2.9931529"
     inkscape:cx="91.542266"
     inkscape:cy="97.890088"
     inkscape:window-width="2560"
     inkscape:window-height="1387"
     inkscape:window-x="2560"
     inkscape:window-y="25"
     inkscape:window-maximized="0"
     inkscape:current-layer="Layer_1">
    <sodipodi:guide
       position="291.72502,173.18241"
       orientation="0,-1"
       id="guide1"
       inkscape:locked="false" />
    <sodipodi:guide
       position="125.13484,121.74975"
       orientation="1,0"
       id="guide2"
       inkscape:locked="false" />
  </sodipodi:namedview>
  <defs
     id="defs1">
    <rect
       x="40.847027"
       y="45.728119"
       width="142.57925"
       height="41.617725"
       id="rect4" />
    <style
       id="style1">.cls-1{fill:#616161;}.cls-2{fill:#f37726;}</style>
  </defs>
  <title
     id="title1">Artboard 1</title>
  <path
     class="cls-2"
     d="m 23.73414,110.6008 q -8.25,-2.33 -11.75,-7.4 A 21.21,21.21 0 0 1 8.5341401,90.900799 v -8.67 q 0,-4.74 -2.1599994,-7.38 -2.16,-2.64 -6.64,-2.64 v -6.23 q 4.49,0 6.64,-2.6 2.1499994,-2.6 2.1599994,-7.39 v -8.7 a 21.14,21.14 0 0 1 3.4799999,-12.3 q 3.49,-5.05 11.72,-7.39 l 1.69,5 a 10.7,10.7 0 0 0 -6.63,5.32 20.45,20.45 0 0 0 -2,9.42 v 8.7 a 16.58,16.58 0 0 1 -1.79,7.84 12.45,12.45 0 0 1 -5.2699999,5.240001 12.5,12.5 0 0 1 5.3599999,5.339999 16.49,16.49 0 0 1 1.79,7.77 v 8.67 a 20.15,20.15 0 0 0 2,9.370001 10.85,10.85 0 0 0 6.57,5.33 z"
     id="path2" />
  <path
     class="cls-2"
     d="m 226.2532,108.90925 -1.67,-4.93 a 10.72,10.72 0 0 0 6.45,-5.230002 19.44,19.44 0 0 0 2,-9.22 v -8.55 a 15.61,15.61 0 0 1 1.88,-7.78 12.22,12.22 0 0 1 5.78,-5.14 11.72,11.72 0 0 1 -5.78,-5 15.83,15.83 0 0 1 -1.88,-7.87 v -8.61 a 19.74,19.74 0 0 0 -2,-9.27 10.52,10.52 0 0 0 -6.45,-5.23 l 1.67,-4.88 q 8,2.25 11.48,7.25 a 20.81,20.81 0 0 1 3.43,12.11 v 8.58 q 0,4.7 2.13,7.26 2.13,2.56 6.58,2.56 v 6.13 q -4.45,0 -6.58,2.61 -2.13,2.61 -2.13,7.26 v 8.55 a 20.8,20.8 0 0 1 -3.43,12.080002 q -3.48,5.02 -11.48,7.32 z"
     id="path3" />
  <text
     xml:space="preserve"
     id="text4"
     style="font-size:53.3333px;font-family:Arial;-inkscape-font-specification:Arial;text-align:center;letter-spacing:0px;white-space:pre;shape-inside:url(#rect4);display:inline;fill:none;fill-opacity:0.736842;stroke:#bab85e;stroke-width:40;stroke-linejoin:round"><tspan
       x="40.847656"
       y="135.38591"
       id="tspan4"><tspan
         dx="0 12.445312 8.8984375 3.5546875 3.5546875 8.8984375 5.328125"
         style="font-size:16px;fill:#616161;fill-opacity:1;stroke:none"
         id="tspan3">Gallery</tspan></tspan></text>
  <g
     id="g11"
     transform="translate(0.99999997,2.6794471)">
    <g
       id="g10"
       transform="translate(1.1869045,43.221686)">
      <path
         style="fill:#f37726;fill-opacity:1;stroke-width:0.608061"
         d="m 36.52074,8.8795552 v 2.3828118 l 2.759055,0.53125 v 21.505859 l -2.759055,0.53125 v 2.361329 h 8.839775 v -2.361329 l -2.9733,-0.53125 V 25.365883 L 42.265287,13.944008 h 0.08187 l 8.275419,21.269531 h 2.217347 l 7.981053,-21.289063 h 0.08012 v 19.375 l -2.886207,0.53125 v 2.361329 h 8.851967 v -2.361329 l -2.766022,-0.53125 V 11.793617 l 2.766022,-0.53125 V 8.8795552 h -7.42715 L 51.759988,29.611976 h -0.109734 l -7.9288,-20.7324208 z"
         id="path5" />
      <rect
         style="fill:none;fill-opacity:1;stroke:#616161;stroke-width:4;stroke-linejoin:round;stroke-dasharray:none;stroke-opacity:1"
         id="rect5-1"
         width="39.718697"
         height="48.581707"
         x="31.83445"
         y="0.49435362" />
    </g>
    <g
       id="g8"
       transform="translate(15.806493,39.695467)">
      <path
         style="fill:#f37726;fill-opacity:1;stroke-width:0.643887"
         d="m 130.96661,12.011457 c -1.64955,-0.03607 -3.28568,0.29782 -4.78515,0.978515 -1.29014,0.585684 -2.39597,1.506745 -3.19922,2.664063 -0.77057,1.134387 -1.16903,2.475514 -1.14453,3.841797 -0.0226,1.269678 0.32974,2.518165 1.01562,3.591797 0.76028,1.11376 1.78645,2.025305 2.98633,2.65625 1.50811,0.80974 3.12625,1.402125 4.80469,1.755859 1.31637,0.267383 2.59314,0.6964 3.80078,1.279297 0.80808,0.375722 1.50123,0.956527 2.00781,1.683594 0.83925,1.423674 0.7974,3.193008 -0.10547,4.578124 -0.50413,0.707058 -1.20298,1.256605 -2.01367,1.582032 -1.02707,0.411664 -2.12866,0.606232 -3.23633,0.570312 -1.05257,0.0091 -2.10169,-0.129227 -3.11523,-0.410156 -0.94019,-0.271173 -1.83906,-0.665445 -2.67383,-1.171875 l -0.64844,-4.289063 h -2.90039 v 5.806641 c 1.35141,0.981638 2.85204,1.742768 4.44727,2.253906 1.57139,0.488217 3.21026,0.732716 4.85742,0.728516 1.74345,0.04471 3.47727,-0.270886 5.08984,-0.927734 1.34987,-0.559681 2.51666,-1.476664 3.37305,-2.650391 0.80592,-1.142265 1.22798,-2.505883 1.20508,-3.898438 0.0359,-1.962145 -0.78792,-3.845472 -2.25977,-5.162109 -1.48503,-1.391464 -3.66242,-2.454939 -6.5332,-3.193359 -1.28278,-0.294829 -2.53398,-0.710872 -3.73633,-1.242188 -0.78891,-0.340627 -1.47843,-0.875127 -2.00195,-1.550781 -0.41719,-0.611884 -0.63224,-1.336476 -0.61524,-2.074219 -0.0298,-0.825987 0.197,-1.640304 0.64844,-2.335937 0.4776,-0.680476 1.13709,-1.218175 1.9043,-1.550781 0.88257,-0.384309 1.83859,-0.570489 2.80273,-0.548829 1.06716,-0.02884 2.13092,0.121822 3.14649,0.447266 0.76718,0.256161 1.48724,0.63528 2.13086,1.121094 l 0.64843,3.898437 h 2.90039 v -5.449218 c -1.09396,-0.904848 -2.33579,-1.617793 -3.67187,-2.111329 -1.63831,-0.608746 -3.37905,-0.904593 -5.12891,-0.871093 z"
         id="path1" />
      <rect
         style="fill:none;fill-opacity:1;stroke:#616161;stroke-width:4;stroke-linejoin:round;stroke-dasharray:none;stroke-opacity:1"
         id="rect5-1-4"
         width="39.626934"
         height="48.623829"
         x="112.01509"
         y="4.0205731" />
    </g>
    <g
       id="g9"
       transform="translate(9.5299606,39.685635)">
      <path
         style="fill:#f37726;fill-opacity:1;stroke-width:0.643887"
         d="m 80.594638,19.758822 v 2.38086 l 2.207036,0.300781 7.265623,17.185547 -0.892583,2.136719 c -0.34097,0.879987 -0.81034,1.707054 -1.39258,2.453125 -0.46804,0.585342 -1.18898,0.917834 -1.94336,0.896484 h -0.78906 c -0.29453,-0.0051 -0.58874,-0.02698 -0.88086,-0.06445 l -0.38281,2.90625 c 0.25254,0.06401 0.6158,0.128809 1.08203,0.199219 0.37517,0.0567 0.75334,0.0886 1.13281,0.0957 0.9922,0.03524 1.97632,-0.191196 2.84961,-0.658203 0.777443,-0.445911 1.442543,-1.06287 1.943363,-1.800782 0.56558,-0.814265 1.02839,-1.692179 1.37891,-2.617187 l 8.080083,-20.732422 2.12501,-0.300781 v -2.38086 h -8.417983 v 2.369141 l 2.58984,0.382812 -4.74023,12.804688 h -0.11719 l -0.9707,-2.650391 -1.998053,-5.070312 -1.99609,-5.070313 2.47851,-0.384765 v -2.38086 z"
         id="path7" />
      <rect
         style="fill:none;fill-opacity:1;stroke:#616161;stroke-width:4;stroke-linejoin:round;stroke-dasharray:none;stroke-opacity:1"
         id="rect5-1-4-0"
         width="39.205795"
         height="48.676418"
         x="71.141731"
         y="4.0304046" />
    </g>
    <g
       id="g7"
       transform="translate(95.541529,-31.680757)">
      <path
         style="fill:#f37726;fill-opacity:1;stroke-width:0.643887"
         d="m 88.228818,83.445855 v 6.582031 h 2.80859 l 0.54492,-3.791016 h 6.26758 v 21.6289 l -3.10156,0.53125 v 2.33594 l 9.914052,0.0254 v -2.36133 l -3.09569,-0.53125 V 86.23687 h 6.27538 l 0.57031,3.791016 h 2.77149 v -6.582031 z"
         id="path6" />
      <rect
         style="fill:none;fill-opacity:1;stroke:#616161;stroke-width:4;stroke-linejoin:round;stroke-dasharray:none;stroke-opacity:1"
         id="rect5-1-4-6"
         width="39.536201"
         height="48.651901"
         x="79.938255"
         y="75.396797" />
    </g>
  </g>
  <metadata
     id="metadata13">
    <rdf:RDF>
      <cc:Work
         rdf:about="">
        <dc:title>Artboard 1</dc:title>
      </cc:Work>
    </rdf:RDF>
  </metadata>
  <path
     style="font-weight:bold;font-size:32px;font-family:Arial;-inkscape-font-specification:'Arial Bold';text-align:center;letter-spacing:0px;text-anchor:middle;fill:#f37726;fill-opacity:1;stroke-width:3.00906;stroke-linejoin:round"
     d="m 81.445919,19.086031 v -3.72469 h 10.391737 v 8.806553 q -1.514783,1.357173 -4.397757,2.397673 -2.866685,1.025421 -5.814812,1.025421 -3.746236,0 -6.531481,-1.447652 -2.785246,-1.462733 -4.186014,-4.162001 -1.400766,-2.714348 -1.400766,-5.896168 0,-3.453254 1.563646,-6.1374419 1.563648,-2.6841895 4.576925,-4.1167621 2.296606,-1.1008189 5.717083,-1.1008189 4.446621,0 6.938682,1.7341668 2.50835,1.7190871 3.225023,4.7651891 l -4.788669,0.829384 Q 86.234588,10.430275 84.833821,9.4953329 83.449343,8.5453111 81.36448,8.5453111 q -3.159869,0 -5.032988,1.8548049 -1.85683,1.854804 -1.85683,5.504096 0,3.935804 1.889407,5.911247 1.889405,1.960361 4.951547,1.960361 1.514783,0 3.029566,-0.542869 1.531071,-0.55795 2.622366,-1.342094 v -2.804826 z m 18.22625,-3.000864 -4.153429,-0.693666 q 0.700382,-2.322276 2.410618,-3.438175 1.710236,-1.115899 5.081872,-1.115899 3.06214,0 4.56062,0.678588 1.49851,0.663507 2.10116,1.704007 0.61894,1.025421 0.61894,3.785009 l -0.0489,4.946144 q 0,2.111159 0.21174,3.1215 0.22802,0.995261 0.83069,2.141319 h -4.52806 q -0.17917,-0.422231 -0.43979,-1.251615 -0.11401,-0.376993 -0.16288,-0.497632 -1.17272,1.055581 -2.50835,1.58337 -1.33561,0.52779 -2.85039,0.52779 -2.671235,0 -4.218591,-1.342093 -1.531071,-1.342095 -1.531071,-3.392935 0,-1.357174 0.700383,-2.412755 0.700382,-1.070659 1.954562,-1.628609 1.270457,-0.573029 3.648527,-0.995261 3.20872,-0.557949 4.44661,-1.040499 v -0.422232 q 0,-1.221457 -0.65152,-1.734166 -0.65153,-0.527791 -2.45949,-0.527791 -1.22159,0 -1.9057,0.452391 -0.6841,0.437312 -1.107588,1.55321 z m 6.124301,3.438175 q -0.87955,0.271435 -2.78524,0.648427 -1.90571,0.376993 -2.49208,0.738907 -0.895832,0.588108 -0.895832,1.492891 0,0.889704 0.716672,1.53813 0.71668,0.648428 1.82425,0.648428 1.2379,0 2.36177,-0.753986 0.83068,-0.573029 1.09129,-1.402414 0.17917,-0.542868 0.17917,-2.065919 z m 9.00726,7.690652 V 5.1071369 h 4.57692 V 27.213994 Z m 9.26786,0 V 5.1071369 h 4.57693 V 27.213994 Z m 19.28497,-5.096941 4.56063,0.708745 q -0.87954,2.322277 -2.78523,3.543733 -1.88941,1.206376 -4.73982,1.206376 -4.51176,0 -6.67806,-2.729426 -1.71025,-2.186559 -1.71025,-5.519175 0,-3.981044 2.24776,-6.227922 2.24774,-2.261957 5.6845,-2.261957 3.86025,0 6.0917,2.367515 2.23146,2.352435 2.13373,7.223182 h -11.46674 q 0.0489,1.884964 1.10758,2.940544 1.05872,1.040501 2.63866,1.040501 1.075,0 1.80795,-0.542869 0.73297,-0.542871 1.10759,-1.749247 z m 0.26061,-4.282639 q -0.0489,-1.839725 -1.02614,-2.789746 -0.97728,-0.965102 -2.37804,-0.965102 -1.4985,0 -2.47578,1.010341 -0.97728,1.010339 -0.96099,2.744507 z m 12.65577,9.37958 h -4.57693 V 11.19934 h 4.25117 v 2.277037 q 1.09129,-1.613529 1.95455,-2.12624 0.87956,-0.51271 1.98715,-0.51271 1.56364,0 3.01327,0.799225 l -1.41705,3.694531 q -1.15646,-0.693667 -2.15002,-0.693667 -0.961,0 -1.6288,0.497629 -0.66781,0.482552 -1.05872,1.764327 -0.37462,1.281776 -0.37462,5.368378 z m 6.43375,-16.014654 h 4.87011 l 4.13715,11.370103 4.03942,-11.370103 h 4.7398 l -6.10798,15.411465 -1.09131,2.789747 q -0.60265,1.402413 -1.15645,2.141319 -0.5375,0.738907 -1.25417,1.191298 -0.70038,0.467471 -1.74281,0.723826 -1.02615,0.256355 -2.32918,0.256355 -1.31933,0 -2.58979,-0.256355 l -0.40721,-3.317537 q 1.07501,0.196037 1.93827,0.196037 1.59623,0 2.36176,-0.874623 0.76554,-0.859544 1.17274,-2.201638 z"
     id="text13"
     aria-label="Gallery" />
</svg>
