<?xml version="1.0" encoding="UTF-8" standalone="no"?>
<svg
   id="Layer_1"
   data-name="Layer 1"
   viewBox="0 0 230 110"
   version="1.1"
   sodipodi:docname="logo-wide 2.svg"
   width="230"
   height="110"
   inkscape:version="1.3 (0e150ed, 2023-07-21)"
   inkscape:export-filename="logo-wide.png"
   inkscape:export-xdpi="96"
   inkscape:export-ydpi="96"
   xmlns:inkscape="http://www.inkscape.org/namespaces/inkscape"
   xmlns:sodipodi="http://sodipodi.sourceforge.net/DTD/sodipodi-0.dtd"
   xmlns="http://www.w3.org/2000/svg"
   xmlns:svg="http://www.w3.org/2000/svg"
   xmlns:rdf="http://www.w3.org/1999/02/22-rdf-syntax-ns#"
   xmlns:cc="http://creativecommons.org/ns#"
   xmlns:dc="http://purl.org/dc/elements/1.1/">
  <sodipodi:namedview
     id="namedview4"
     pagecolor="#ffffff"
     bordercolor="#000000"
     borderopacity="0.25"
     inkscape:showpageshadow="2"
     inkscape:pageopacity="0.0"
     inkscape:pagecheckerboard="0"
     inkscape:deskcolor="#d1d1d1"
     showguides="true"
     inkscape:zoom="1.6040449"
     inkscape:cx="243.75876"
     inkscape:cy="-84.162233"
     inkscape:window-width="2560"
     inkscape:window-height="1387"
     inkscape:window-x="2560"
     inkscape:window-y="25"
     inkscape:window-maximized="0"
     inkscape:current-layer="Layer_1" />
  <defs
     id="defs1">
    <rect
       x="40.847027"
       y="45.728119"
       width="142.57925"
       height="41.617725"
       id="rect4" />
    <style
       id="style1">.cls-1{fill:#616161;}.cls-2{fill:#f37726;}</style>
  </defs>
  <title
     id="title1">Artboard 1</title>
  <path
     class="cls-2"
     d="m 23.73414,110.6008 q -8.25,-2.33 -11.75,-7.4 A 21.21,21.21 0 0 1 8.5341401,90.900799 v -8.67 q 0,-4.74 -2.1599994,-7.38 -2.16,-2.64 -6.64,-2.64 v -6.23 q 4.49,0 6.64,-2.6 2.1499994,-2.6 2.1599994,-7.39 v -8.7 a 21.14,21.14 0 0 1 3.4799999,-12.3 q 3.49,-5.05 11.72,-7.39 l 1.69,5 a 10.7,10.7 0 0 0 -6.63,5.32 20.45,20.45 0 0 0 -2,9.42 v 8.7 a 16.58,16.58 0 0 1 -1.79,7.84 12.45,12.45 0 0 1 -5.2699999,5.240001 12.5,12.5 0 0 1 5.3599999,5.339999 16.49,16.49 0 0 1 1.79,7.77 v 8.67 a 20.15,20.15 0 0 0 2,9.370001 10.85,10.85 0 0 0 6.57,5.33 z"
     id="path2" />
  <path
     class="cls-2"
     d="m 207.15531,109.9558 -1.67,-4.93 a 10.72,10.72 0 0 0 6.45,-5.230001 19.44,19.44 0 0 0 2,-9.22 v -8.55 a 15.61,15.61 0 0 1 1.88,-7.78 12.22,12.22 0 0 1 5.78,-5.14 11.72,11.72 0 0 1 -5.78,-5 15.83,15.83 0 0 1 -1.88,-7.87 v -8.61 a 19.74,19.74 0 0 0 -2,-9.27 10.52,10.52 0 0 0 -6.45,-5.23 l 1.67,-4.88 q 8,2.25 11.48,7.25 a 20.81,20.81 0 0 1 3.43,12.11 v 8.58 q 0,4.7 2.13,7.26 2.13,2.56 6.58,2.56 v 6.13 q -4.45,0 -6.58,2.61 -2.13,2.61 -2.13,7.26 v 8.55 a 20.8,20.8 0 0 1 -3.43,12.080001 q -3.48,5.02 -11.48,7.32 z"
     id="path3" />
  <text
     xml:space="preserve"
     id="text4"
     style="font-size:53.3333px;font-family:Arial;-inkscape-font-specification:Arial;text-align:center;letter-spacing:0px;white-space:pre;shape-inside:url(#rect4);display:inline;fill:none;fill-opacity:0.736842;stroke:#bab85e;stroke-width:40;stroke-linejoin:round"><tspan
       x="40.847656"
       y="135.38591"
       id="tspan4"><tspan
         dx="0 12.445312 8.8984375 3.5546875 3.5546875 8.8984375 5.328125"
         style="font-size:16px;fill:#616161;fill-opacity:1;stroke:none"
         id="tspan3">Gallery</tspan></tspan></text>
  <g
     id="g10"
     transform="translate(-3.7570272,49.322326)">
    <path
       style="fill:#616161;fill-opacity:1;stroke-width:0.643887"
       d="m 34.680129,8.5923996 v 2.3828124 l 3.09375,0.53125 v 21.505859 l -3.09375,0.53125 V 35.9049 h 9.912109 v -2.361329 l -3.333984,-0.53125 V 25.078728 L 41.121535,13.656853 h 0.0918 l 9.279297,21.269531 h 2.486328 l 8.949218,-21.289063 h 0.08984 v 19.375 l -3.236328,0.53125 V 35.9049 h 9.925781 v -2.361329 l -3.101562,-0.53125 V 11.506462 l 3.101562,-0.53125 V 8.5923996 H 60.379347 L 51.768019,29.324821 H 51.644972 L 42.754347,8.5923996 Z"
       id="path5" />
    <rect
       style="fill:none;fill-opacity:1;stroke:#f37726;stroke-width:3;stroke-linejoin:round;stroke-dasharray:none;stroke-opacity:1"
       id="rect5-1"
       width="39.718697"
       height="48.581707"
       x="31.83445"
       y="0.49435362" />
  </g>
  <g
     id="g8"
     transform="translate(5.360852,45.735797)">
    <path
       style="fill:#616161;fill-opacity:1;stroke-width:0.643887"
       d="m 130.96661,12.011457 c -1.64955,-0.03607 -3.28568,0.29782 -4.78515,0.978515 -1.29014,0.585684 -2.39597,1.506745 -3.19922,2.664063 -0.77057,1.134387 -1.16903,2.475514 -1.14453,3.841797 -0.0226,1.269678 0.32974,2.518165 1.01562,3.591797 0.76028,1.11376 1.78645,2.025305 2.98633,2.65625 1.50811,0.80974 3.12625,1.402125 4.80469,1.755859 1.31637,0.267383 2.59314,0.6964 3.80078,1.279297 0.80808,0.375722 1.50123,0.956527 2.00781,1.683594 0.83925,1.423674 0.7974,3.193008 -0.10547,4.578124 -0.50413,0.707058 -1.20298,1.256605 -2.01367,1.582032 -1.02707,0.411664 -2.12866,0.606232 -3.23633,0.570312 -1.05257,0.0091 -2.10169,-0.129227 -3.11523,-0.410156 -0.94019,-0.271173 -1.83906,-0.665445 -2.67383,-1.171875 l -0.64844,-4.289063 h -2.90039 v 5.806641 c 1.35141,0.981638 2.85204,1.742768 4.44727,2.253906 1.57139,0.488217 3.21026,0.732716 4.85742,0.728516 1.74345,0.04471 3.47727,-0.270886 5.08984,-0.927734 1.34987,-0.559681 2.51666,-1.476664 3.37305,-2.650391 0.80592,-1.142265 1.22798,-2.505883 1.20508,-3.898438 0.0359,-1.962145 -0.78792,-3.845472 -2.25977,-5.162109 -1.48503,-1.391464 -3.66242,-2.454939 -6.5332,-3.193359 -1.28278,-0.294829 -2.53398,-0.710872 -3.73633,-1.242188 -0.78891,-0.340627 -1.47843,-0.875127 -2.00195,-1.550781 -0.41719,-0.611884 -0.63224,-1.336476 -0.61524,-2.074219 -0.0298,-0.825987 0.197,-1.640304 0.64844,-2.335937 0.4776,-0.680476 1.13709,-1.218175 1.9043,-1.550781 0.88257,-0.384309 1.83859,-0.570489 2.80273,-0.548829 1.06716,-0.02884 2.13092,0.121822 3.14649,0.447266 0.76718,0.256161 1.48724,0.63528 2.13086,1.121094 l 0.64843,3.898437 h 2.90039 v -5.449218 c -1.09396,-0.904848 -2.33579,-1.617793 -3.67187,-2.111329 -1.63831,-0.608746 -3.37905,-0.904593 -5.12891,-0.871093 z"
       id="path1" />
    <rect
       style="fill:none;fill-opacity:1;stroke:#f37726;stroke-width:3;stroke-linejoin:round;stroke-dasharray:none;stroke-opacity:1"
       id="rect5-1-4"
       width="39.626934"
       height="48.623829"
       x="112.01509"
       y="4.0205731" />
  </g>
  <g
     id="g9"
     transform="translate(1.9576667,45.673376)">
    <path
       style="fill:#616161;fill-opacity:1;stroke-width:0.643887"
       d="m 80.594638,19.758822 v 2.38086 l 2.207036,0.300781 7.265623,17.185547 -0.892583,2.136719 c -0.34097,0.879987 -0.81034,1.707054 -1.39258,2.453125 -0.46804,0.585342 -1.18898,0.917834 -1.94336,0.896484 h -0.78906 c -0.29453,-0.0051 -0.58874,-0.02698 -0.88086,-0.06445 l -0.38281,2.90625 c 0.25254,0.06401 0.6158,0.128809 1.08203,0.199219 0.37517,0.0567 0.75334,0.0886 1.13281,0.0957 0.9922,0.03524 1.97632,-0.191196 2.84961,-0.658203 0.777443,-0.445911 1.442543,-1.06287 1.943363,-1.800782 0.56558,-0.814265 1.02839,-1.692179 1.37891,-2.617187 l 8.080083,-20.732422 2.12501,-0.300781 v -2.38086 h -8.417983 v 2.369141 l 2.58984,0.382812 -4.74023,12.804688 h -0.11719 l -0.9707,-2.650391 -1.998053,-5.070312 -1.99609,-5.070313 2.47851,-0.384765 v -2.38086 z"
       id="path7" />
    <rect
       style="fill:none;fill-opacity:1;stroke:#f37726;stroke-width:3;stroke-linejoin:round;stroke-dasharray:none;stroke-opacity:1"
       id="rect5-1-4-0"
       width="39.205795"
       height="48.676418"
       x="71.141731"
       y="4.0304046" />
  </g>
  <g
     id="g7"
     transform="translate(82.287739,-25.668499)">
    <path
       style="fill:#616161;fill-opacity:1;stroke-width:0.643887"
       d="m 88.228818,83.445855 v 6.582031 h 2.80859 l 0.54492,-3.791016 h 6.26758 v 21.6289 l -3.10156,0.53125 v 2.33594 l 9.914052,0.0254 v -2.36133 l -3.09569,-0.53125 V 86.23687 h 6.27538 l 0.57031,3.791016 h 2.77149 v -6.582031 z"
       id="path6" />
    <rect
       style="fill:none;fill-opacity:1;stroke:#f37726;stroke-width:3;stroke-linejoin:round;stroke-dasharray:none;stroke-opacity:1"
       id="rect5-1-4-6"
       width="39.536201"
       height="48.651901"
       x="79.938255"
       y="75.396797" />
  </g>
  <metadata
     id="metadata13">
    <rdf:RDF>
      <cc:Work
         rdf:about="">
        <dc:title>Artboard 1</dc:title>
      </cc:Work>
    </rdf:RDF>
  </metadata>
  <text
     xml:space="preserve"
     style="font-style:normal;font-variant:normal;font-weight:normal;font-stretch:normal;font-size:37.3333px;font-family:Arial;-inkscape-font-specification:Arial;text-align:center;letter-spacing:0px;text-anchor:middle;fill:#616161;fill-opacity:1;stroke:#f37726;stroke-width:3;stroke-linejoin:round;stroke-dasharray:none;stroke-opacity:1"
     x="113.36354"
     y="32.981834"
     id="text13"><tspan
       sodipodi:role="line"
       id="tspan13"
       x="113.36354"
       y="32.981834"
       style="font-style:normal;font-variant:normal;font-weight:bold;font-stretch:normal;font-size:37.3333px;font-family:Arial;-inkscape-font-specification:'Arial Bold';stroke:none">Gallery</tspan></text>
</svg>
